<svg width="24" height="24" viewBox="0 0 24 24" fill="none" xmlns="http://www.w3.org/2000/svg">
<path d="M0.600098 3C0.600098 1.34315 1.94324 0 3.6001 0H11.4001C12.0628 0 12.6001 0.537258 12.6001 1.2C12.6001 1.86274 12.0628 2.4 11.4001 2.4H6.0001C4.34324 2.4 3.0001 3.74315 3.0001 5.4V18.6C3.0001 20.2569 4.34324 21.6 6.0001 21.6H11.4001C12.0628 21.6 12.6001 22.1373 12.6001 22.8C12.6001 23.4627 12.0628 24 11.4001 24H3.6001C1.94324 24 0.600098 22.6569 0.600098 21V3Z" fill="#F62B2B"/>
<path d="M8.0401 11.88C8.0401 11.2835 8.52363 10.8 9.1201 10.8H18.8617C19.2054 10.8 19.3536 10.3642 19.0812 10.1547L15.5955 7.4734C15.3714 7.30101 15.2401 7.03432 15.2401 6.7516C15.2401 5.97828 16.1431 5.55693 16.7357 6.0537L23.1242 11.4087C23.2991 11.5553 23.4001 11.7718 23.4001 12C23.4001 12.2282 23.2991 12.4447 23.1242 12.5913L16.7357 17.9463C16.1431 18.4431 15.2401 18.0217 15.2401 17.2484C15.2401 16.9657 15.3714 16.699 15.5955 16.5266L19.0812 13.8453C19.3536 13.6358 19.2054 13.2 18.8617 13.2H9.1201C8.52363 13.2 8.0401 12.7165 8.0401 12.12L8.0401 11.88Z" fill="#F62B2B"/>
</svg>
