<svg width="24" height="24" viewBox="0 0 24 24" fill="none" xmlns="http://www.w3.org/2000/svg">
<path d="M3.88806 19.4156C3.22892 19.6931 2.5 19.2091 2.5 18.4939V5.50608C2.5 4.7909 3.22892 4.30691 3.88806 4.58445L19.3111 11.0784C20.127 11.4219 20.127 12.5781 19.3111 12.9216L3.88806 19.4156ZM4.5 15.4927C4.5 16.2082 5.22953 16.6922 5.88875 16.414L14.1664 12.9213C14.9814 12.5775 14.9814 11.4225 14.1664 11.0787L5.88875 7.58597C5.22953 7.30782 4.5 7.79181 4.5 8.50731V9.71922C4.5 10.1781 4.8123 10.5781 5.25746 10.6894L6.61943 11.0299C7.62938 11.2823 7.62938 12.7177 6.61943 12.9701L5.25746 13.3106C4.8123 13.4219 4.5 13.8219 4.5 14.2808V15.4927ZM4.5 17V12V7V10.5V13.5V17Z" fill="#E9876A"/>
</svg>
