<svg width="24" height="24" viewBox="0 0 24 24" fill="none" xmlns="http://www.w3.org/2000/svg">
<path d="M10.133 22C9.62865 22 9.20325 21.6245 9.1407 21.124L8.92448 19.3943C8.87875 19.0284 8.62926 18.7273 8.30995 18.5429C8.28567 18.5288 8.26159 18.5145 8.2377 18.5C8.20567 18.4805 8.17376 18.4608 8.14196 18.4408C7.84561 18.2548 7.47811 18.2078 7.15553 18.3433L5.51187 19.034C5.04786 19.2289 4.51125 19.0486 4.25908 18.6131L2.39295 15.3898C2.14007 14.953 2.25231 14.3962 2.65467 14.0915L4.25518 12.8795C4.42181 12.7533 4.5002 12.5465 4.5002 12.3375V11.6625C4.5002 11.4535 4.42181 11.2467 4.25517 11.1205L2.65467 9.90848C2.25231 9.60379 2.14007 9.04703 2.39295 8.61024L4.25908 5.38693C4.51125 4.95135 5.04786 4.77108 5.51187 4.96604L7.15553 5.65665C7.47811 5.79219 7.84532 5.74454 8.14442 5.56295C8.17942 5.5417 8.21467 5.52072 8.2502 5.5C8.27652 5.48464 8.30285 5.46958 8.32917 5.4548C8.64209 5.27913 8.87767 4.98024 8.92218 4.62416L9.1407 2.87596C9.20325 2.37554 9.62865 2 10.133 2H13.8674C14.3717 2 14.7971 2.37554 14.8597 2.87597L15.0759 4.60569C15.1216 4.97159 15.3711 5.27271 15.6904 5.45715C15.7147 5.47117 15.7388 5.48546 15.7627 5.5C15.7947 5.5195 15.8266 5.53922 15.8584 5.55918C16.1548 5.74523 16.5223 5.79219 16.8449 5.65665L18.4885 4.96604C18.9525 4.77108 19.4891 4.95136 19.7413 5.38693L21.6074 8.61024C21.8603 9.04703 21.7481 9.60379 21.3457 9.90848L19.7452 11.1205C19.5786 11.2467 19.5002 11.4535 19.5002 11.6625V12.3375C19.5002 12.5438 19.5586 12.7571 19.7231 12.8816L21.3207 14.0915C21.7231 14.3962 21.8353 14.953 21.5824 15.3898L19.7177 18.6107C19.4649 19.0473 18.9266 19.2273 18.4621 19.0305L16.846 18.3457C16.5229 18.2088 16.1543 18.256 15.8543 18.4381C15.8198 18.459 15.7851 18.4796 15.7502 18.5C15.7239 18.5154 15.6975 18.5304 15.6712 18.5452C15.3583 18.7209 15.1227 19.0198 15.0782 19.3758L14.8597 21.124C14.7971 21.6245 14.3717 22 13.8674 22H10.133ZM12.0502 15.5C13.0169 15.5 13.8419 15.1583 14.5252 14.475C15.2085 13.7917 15.5502 12.9667 15.5502 12C15.5502 11.0333 15.2085 10.2083 14.5252 9.525C13.8419 8.84167 13.0169 8.5 12.0502 8.5C11.0669 8.5 10.2377 8.84167 9.5627 9.525C8.8877 10.2083 8.5502 11.0333 8.5502 12C8.5502 12.9667 8.8877 13.7917 9.5627 14.475C10.2377 15.1583 11.0669 15.5 12.0502 15.5Z" fill="#1F1F1F"/>
</svg>
