<svg width="177" height="177" viewBox="0 0 177 177" fill="none" xmlns="http://www.w3.org/2000/svg">
<path d="M0 36.7899C0 18.8308 17.7573 6.26727 34.6925 12.2444L79.8369 28.1777C85.4428 30.1563 91.5572 30.1563 97.1631 28.1777L142.307 12.2444C159.243 6.26727 177 18.8308 177 36.7899V140.21C177 158.169 159.243 170.733 142.307 164.756L97.1631 148.822C91.5572 146.844 85.4428 146.844 79.8369 148.822L34.6925 164.756C17.7573 170.733 0 158.169 0 140.21V36.7899Z" fill="#4E0824"/>
<path d="M17.7002 52.9256C17.7002 35.0759 38.6882 25.4993 52.1705 37.1971L74.8534 56.8779C82.6831 63.6713 94.3173 63.6713 102.147 56.8779L124.83 37.1971C138.312 25.4992 159.3 35.0759 159.3 52.9256V124.076C159.3 141.926 138.312 151.502 124.83 139.805L102.147 120.124C94.3173 113.33 82.6831 113.33 74.8534 120.124L52.1705 139.805C38.6882 151.502 17.7002 141.926 17.7002 124.076V52.9256Z" fill="#A7243E"/>
<path d="M44.7705 66.7108C44.7705 55.686 57.7337 49.771 66.061 56.9961L79.9109 69.0129C84.7468 73.2089 91.9326 73.2089 96.7686 69.0129L110.618 56.9961C118.946 49.771 131.909 55.686 131.909 66.7108V110.289C131.909 121.314 118.946 127.229 110.618 120.004L96.7686 107.987C91.9326 103.791 84.7468 103.791 79.9108 107.987L66.061 120.004C57.7337 127.229 44.7705 121.314 44.7705 110.289V66.7108Z" fill="#E9876A"/>
</svg>
