<svg width="278" height="277" viewBox="0 0 278 277" fill="none" xmlns="http://www.w3.org/2000/svg">
<path d="M0.483398 57.5752C0.483398 29.4697 28.273 9.8081 54.7762 19.1622L125.426 44.0973C134.199 47.1937 143.768 47.1938 152.541 44.0973L223.191 19.1622C249.694 9.8081 277.483 29.4697 277.483 57.5752V219.425C277.483 247.53 249.694 267.192 223.191 257.838L152.541 232.903C143.768 229.806 134.199 229.806 125.426 232.903L54.7762 257.838C28.273 267.192 0.483398 247.53 0.483398 219.425V57.5752Z" fill="#622525"/>
<path d="M28.1836 82.8258C28.1836 54.8916 61.0293 39.9043 82.1286 58.2111L117.627 89.011C129.88 99.6425 148.087 99.6425 160.34 89.011L195.839 58.2111C216.938 39.9043 249.784 54.8915 249.784 82.8258V194.174C249.784 222.108 216.938 237.096 195.839 218.789L160.34 187.989C148.087 177.357 129.88 177.358 117.627 187.989L82.1286 218.789C61.0292 237.096 28.1836 222.108 28.1836 194.174V82.8258Z" fill="#B66F0B"/>
<path d="M70.5483 104.401C70.5483 87.1472 90.8354 77.8904 103.867 89.1975L125.542 108.003C133.11 114.57 144.356 114.57 151.924 108.003L173.599 89.1975C186.631 77.8904 206.918 87.1471 206.918 104.401V172.6C206.918 189.853 186.631 199.11 173.599 187.803L151.924 168.997C144.356 162.43 133.11 162.43 125.542 168.997L103.867 187.803C90.8354 199.11 70.5483 189.853 70.5483 172.6V104.401Z" fill="#F5B780"/>
</svg>
