<svg width="392" height="198" viewBox="0 0 392 198" fill="none" xmlns="http://www.w3.org/2000/svg">
<g clip-path="url(#clip0_32_68)">
<rect x="0.5" y="43.624" width="391" height="138.95" rx="23.5865" fill="#B66F0B"/>
<path d="M228.397 162.466C228.397 164.21 227.961 165.809 227.09 167.262C226.218 168.773 225.055 169.964 223.602 170.836C222.149 171.766 220.522 172.231 218.72 172.231H206.601C205.497 172.231 204.537 171.824 203.724 171.011C202.968 170.255 202.59 169.325 202.59 168.221V165.779C202.59 164.675 202.968 163.745 203.724 162.99C204.537 162.234 205.497 161.856 206.601 161.856H216.889C217.179 161.856 217.441 161.74 217.673 161.507C217.964 161.275 218.109 161.013 218.109 160.723V159.415C218.109 159.124 217.964 158.863 217.673 158.63C217.441 158.398 217.179 158.281 216.889 158.281H206.601C203.927 158.281 201.631 157.352 199.713 155.492C197.795 153.573 196.836 151.249 196.836 148.517V122.884C196.836 121.082 197.272 119.455 198.144 118.002C199.074 116.49 200.265 115.299 201.718 114.427C203.172 113.555 204.799 113.119 206.601 113.119H218.72C220.522 113.119 222.149 113.555 223.602 114.427C225.055 115.299 226.218 116.49 227.09 118.002C227.961 119.455 228.397 121.082 228.397 122.884V162.466ZM218.109 146.86V124.715C218.109 124.366 217.964 124.076 217.673 123.843C217.441 123.611 217.179 123.494 216.889 123.494H208.432C208.141 123.494 207.851 123.611 207.56 123.843C207.327 124.076 207.211 124.366 207.211 124.715V146.86C207.211 147.151 207.327 147.412 207.56 147.645C207.851 147.877 208.141 147.994 208.432 147.994H216.889C217.179 147.994 217.441 147.877 217.673 147.645C217.964 147.412 218.109 147.151 218.109 146.86ZM267.052 148.517C267.052 151.249 266.093 153.573 264.175 155.492C262.315 157.352 260.048 158.281 257.374 158.281H245.256C242.582 158.281 240.286 157.352 238.368 155.492C236.45 153.573 235.491 151.249 235.491 148.517V117.217C235.491 116.055 235.869 115.095 236.624 114.34C237.438 113.526 238.397 113.119 239.501 113.119H241.942C243.047 113.119 243.977 113.526 244.732 114.34C245.488 115.095 245.866 116.055 245.866 117.217V146.86C245.866 147.151 245.982 147.412 246.215 147.645C246.505 147.877 246.796 147.994 247.086 147.994H255.543C255.834 147.994 256.096 147.877 256.328 147.645C256.619 147.412 256.764 147.151 256.764 146.86V117.217C256.764 116.055 257.142 115.095 257.897 114.34C258.653 113.526 259.583 113.119 260.687 113.119H263.129C264.233 113.119 265.163 113.526 265.919 114.34C266.674 115.095 267.052 116.055 267.052 117.217V148.517ZM287.31 104.924C287.31 106.726 286.642 108.295 285.305 109.632C284.026 110.911 282.515 111.55 280.771 111.55C278.97 111.55 277.4 110.911 276.063 109.632C274.785 108.295 274.145 106.726 274.145 104.924C274.145 103.18 274.785 101.669 276.063 100.39C277.4 99.0533 278.97 98.3849 280.771 98.3849C282.515 98.3849 284.026 99.0533 285.305 100.39C286.642 101.669 287.31 103.18 287.31 104.924ZM285.915 154.271C285.915 155.375 285.509 156.334 284.695 157.148C283.939 157.904 283.009 158.281 281.905 158.281H279.551C278.447 158.281 277.487 157.904 276.674 157.148C275.918 156.334 275.54 155.375 275.54 154.271V118.089C275.54 116.984 275.918 116.055 276.674 115.299C277.487 114.485 278.447 114.078 279.551 114.078H281.905C283.009 114.078 283.939 114.485 284.695 115.299C285.509 116.055 285.915 116.984 285.915 118.089V154.271ZM325.885 148.517C325.885 151.249 324.926 153.573 323.008 155.492C321.148 157.352 318.881 158.281 316.208 158.281H304.089C301.415 158.281 299.119 157.352 297.201 155.492C295.283 153.573 294.324 151.249 294.324 148.517V122.884C294.324 121.082 294.76 119.455 295.632 118.002C296.562 116.49 297.753 115.299 299.206 114.427C300.66 113.555 302.287 113.119 304.089 113.119H314.377C315.191 113.119 315.597 112.771 315.597 112.073V103.354C315.597 102.192 315.975 101.233 316.731 100.477C317.486 99.7217 318.416 99.3439 319.521 99.3439H321.962C323.066 99.3439 323.996 99.7217 324.752 100.477C325.508 101.233 325.885 102.192 325.885 103.354V148.517ZM315.597 146.86V124.715C315.597 123.901 315.191 123.494 314.377 123.494H305.92C305.629 123.494 305.339 123.611 305.048 123.843C304.815 124.076 304.699 124.366 304.699 124.715V146.86C304.699 147.151 304.815 147.412 305.048 147.645C305.339 147.877 305.629 147.994 305.92 147.994H314.377C315.191 147.994 315.597 147.616 315.597 146.86ZM364.54 132.387C364.54 134.131 364.104 135.758 363.232 137.27C362.36 138.723 361.198 139.914 359.745 140.844C358.292 141.716 356.664 142.152 354.862 142.152H344.574C344.284 142.152 343.993 142.268 343.703 142.501C343.47 142.675 343.354 142.908 343.354 143.198V146.86C343.354 147.151 343.47 147.412 343.703 147.645C343.993 147.877 344.284 147.994 344.574 147.994H354.862C355.967 147.994 356.897 148.371 357.652 149.127C358.466 149.883 358.873 150.842 358.873 152.004V154.271C358.873 155.375 358.466 156.334 357.652 157.148C356.897 157.904 355.967 158.281 354.862 158.281H342.744C340.07 158.281 337.774 157.352 335.856 155.492C333.938 153.573 332.979 151.249 332.979 148.517V122.884C332.979 121.082 333.415 119.455 334.287 118.002C335.216 116.549 336.408 115.386 337.861 114.514C339.314 113.584 340.942 113.119 342.744 113.119H354.862C356.664 113.119 358.292 113.584 359.745 114.514C361.198 115.386 362.36 116.549 363.232 118.002C364.104 119.455 364.54 121.082 364.54 122.884V132.387ZM354.252 130.644V124.715C354.252 124.366 354.107 124.076 353.816 123.843C353.584 123.611 353.322 123.494 353.031 123.494H344.574C344.284 123.494 343.993 123.611 343.703 123.843C343.47 124.076 343.354 124.366 343.354 124.715V130.644C343.354 130.876 343.47 131.109 343.703 131.341C343.993 131.574 344.284 131.69 344.574 131.69H353.031C353.322 131.69 353.584 131.574 353.816 131.341C354.107 131.109 354.252 130.876 354.252 130.644Z" fill="#F5B780"/>
<path d="M209.447 75.7429C209.447 77.4708 208.856 78.9713 207.673 80.2445C206.491 81.4267 204.991 82.0179 203.172 82.0179H188.848C187.666 82.0179 187.075 82.609 187.075 83.7912V151.725C187.075 153.453 186.438 154.953 185.165 156.227C183.983 157.409 182.528 158 180.8 158H177.253C175.525 158 174.025 157.409 172.752 156.227C171.569 154.953 170.978 153.453 170.978 151.725V83.7912C170.978 82.609 170.387 82.0179 169.205 82.0179H154.745C153.017 82.0179 151.517 81.4267 150.243 80.2445C149.061 78.9713 148.47 77.4708 148.47 75.7429V72.0597C148.47 70.2409 149.061 68.7403 150.243 67.5581C151.517 66.3758 153.017 65.7847 154.745 65.7847H203.172C204.991 65.7847 206.491 66.3758 207.673 67.5581C208.856 68.7403 209.447 70.2409 209.447 72.0597V75.7429Z" fill="#622525"/>
<path d="M163.294 149.815C163.839 151.907 163.521 153.817 162.339 155.545C161.157 157.182 159.474 158 157.291 158H153.335C152.062 158 150.835 157.591 149.652 156.772C148.561 155.954 147.788 154.953 147.333 153.771L142.15 138.084C141.786 136.901 141.013 136.31 139.831 136.31H116.504C115.322 136.31 114.549 136.901 114.185 138.084L109.001 153.771C108.547 154.953 107.773 155.954 106.682 156.772C105.591 157.591 104.363 158 102.999 158H99.0431C96.8604 158 95.178 157.182 93.9958 155.545C92.7226 153.726 92.4498 151.816 93.1773 149.815L119.641 70.0135C120.096 68.7403 120.824 67.74 121.824 67.0124C122.915 66.1939 124.098 65.7847 125.371 65.7847H130.964C132.237 65.7847 133.419 66.1939 134.51 67.0124C135.602 67.74 136.329 68.7403 136.693 70.0135L163.294 149.815ZM135.738 118.44L128.918 97.569C128.463 96.9324 127.963 96.9324 127.417 97.569L120.596 118.44C120.414 118.895 120.46 119.304 120.733 119.668C121.006 120.032 121.369 120.214 121.824 120.214H134.51C134.965 120.214 135.329 120.032 135.602 119.668C135.875 119.304 135.92 118.895 135.738 118.44Z" fill="#622525"/>
<path d="M89.4382 151.725C89.4382 153.453 88.8016 154.953 87.5284 156.227C86.3461 157.409 84.891 158 83.1631 158H79.2072C76.7517 158 74.9329 156.954 73.7506 154.862L44.6946 104.526C44.5127 104.162 44.2399 104.071 43.8762 104.253C43.5124 104.344 43.3305 104.526 43.3305 104.799V151.725C43.3305 153.453 42.6939 154.953 41.4207 156.227C40.2385 157.409 38.8289 158 37.1919 158H33.3723C31.6444 158 30.1439 157.409 28.8707 156.227C27.6885 154.953 27.0973 153.453 27.0973 151.725V72.0597C27.0973 70.2409 27.6885 68.7403 28.8707 67.5581C30.1439 66.3758 31.6444 65.7847 33.3723 65.7847H37.3283C39.7838 65.7847 41.6026 66.8305 42.7848 68.9222L71.8409 119.259C72.1137 119.622 72.3865 119.759 72.6593 119.668C73.0231 119.577 73.205 119.35 73.205 118.986V72.0597C73.205 70.2409 73.7961 68.7403 74.9784 67.5581C76.2515 66.3758 77.7521 65.7847 79.48 65.7847H83.1631C84.891 65.7847 86.3461 66.3758 87.5284 67.5581C88.8016 68.7403 89.4382 70.2409 89.4382 72.0597V151.725Z" fill="#622525"/>
</g>
<defs>
<clipPath id="clip0_32_68">
<rect width="391" height="197.116" fill="white" transform="translate(0.5)"/>
</clipPath>
</defs>
</svg>
