<svg width="227" height="130" viewBox="0 0 227 130" fill="none" xmlns="http://www.w3.org/2000/svg">
<path d="M101 79C101 76.2386 103.239 74 106 74H121C123.761 74 126 76.2386 126 79V94V114C126 116.761 123.761 119 121 119H106C103.239 119 101 116.761 101 114V105C101 102.791 102.791 101 105 101C107.209 101 109 102.791 109 105V109.5C109 111.985 111.015 114 113.5 114C115.985 114 118 111.985 118 109.5V94V83.5C118 81.0147 115.985 79 113.5 79C111.015 79 109 81.0147 109 83.5V84.5C109 86.9853 111.015 89 113.5 89C115.985 89 118 91.0147 118 93.5V94H106C103.239 94 101 91.7614 101 89V79Z" fill="#A7243E"/>
<path d="M129 78C129 75.7909 130.791 74 133 74C135.209 74 137 75.7909 137 78V84.5C137 86.9853 139.015 89 141.5 89C143.985 89 146 86.9853 146 84.5V78C146 75.7909 147.791 74 150 74C152.209 74 154 75.7909 154 78V89C154 91.7614 151.761 94 149 94H134C131.239 94 129 91.7614 129 89V78Z" fill="#A7243E"/>
<path d="M157 66.3365C157 63.8482 158.83 61.7386 161.293 61.3867L166.05 60.7071C168.663 60.3339 171 62.361 171 65C171 67.639 168.663 69.6661 166.05 69.2929L157 68L161 74C163.209 74 165 75.7909 165 78V90C165 92.2091 163.209 94 161 94C158.791 94 157 92.2091 157 90V78C157 75.7909 158.791 74 161 74L157 68V66.3365Z" fill="#A7243E"/>
<path d="M191 53C191 50.7909 192.791 49 195 49C197.209 49 199 50.7909 199 53V89C199 91.7614 196.761 94 194 94H179C176.239 94 174 91.7614 174 89V79C174 76.2386 176.239 74 179 74H191V74.5C191 76.9853 188.985 79 186.5 79C184.015 79 182 81.0147 182 83.5V84.5C182 86.9853 184.015 89 186.5 89C188.985 89 191 86.9853 191 84.5V74V53Z" fill="#A7243E"/>
<path d="M202 74C202 71.2386 204.239 69 207 69H222C224.761 69 227 71.2386 227 74V79C227 81.7614 224.761 84 222 84H220V79C220 76.2386 217.761 74 215 74H212.5C211.119 74 210 75.1193 210 76.5C210 77.8807 211.119 79 212.5 79H215C217.761 79 220 81.2386 220 84H212.5C211.119 84 210 85.1193 210 86.5C210 87.8807 211.119 89 212.5 89H224.5C225.881 89 227 90.1193 227 91.5C227 92.8807 225.881 94 224.5 94H207C204.239 94 202 91.7614 202 89V74Z" fill="#A7243E"/>
<g clip-path="url(#clip0_459_996)">
<path d="M0 65C0 62.2386 2.23858 60 5 60H10.0318C11.8616 60 13.5451 60.9994 14.4213 62.6057L27.6105 86.786C30.091 91.3335 37 89.5717 37 84.3917V65C37 62.2386 39.2386 60 42 60H45C47.7614 60 50 62.2386 50 65V125C50 127.761 47.7614 130 45 130H39.9682C38.1384 130 36.4549 129.001 35.5787 127.394L22.3895 103.214C19.909 98.6665 13 100.428 13 105.608V125C13 127.761 10.7614 130 8 130H5C2.23858 130 0 127.761 0 125V65Z" fill="#4E0824"/>
<path d="M68.9639 28.6264C69.5772 26.4799 71.5391 25 73.7715 25H76.2285C78.4609 25 80.4228 26.4799 81.0361 28.6264L98.2439 88.8537C99.124 91.9339 96.8112 95 93.6078 95C91.4688 95 89.5855 93.5909 88.982 91.5388L86.0556 81.5892C85.4298 79.4613 83.4769 78 81.2588 78H75V69H76.9781C80.4151 69 82.8274 65.6124 81.7031 62.3644L79.7249 56.6498C78.1721 52.1639 71.8279 52.1639 70.2751 56.6498L68.2969 62.3644C67.1726 65.6124 69.5849 69 73.0219 69H75V78H68.7412C66.5231 78 64.5702 79.4613 63.9444 81.5892L61.018 91.5388C60.4145 93.5909 58.5312 95 56.3922 95C53.1888 95 50.876 91.9339 51.7561 88.8537L68.9639 28.6264Z" fill="#E9876A"/>
<path d="M76 5C76 2.23858 78.2386 0 81 0H121C123.761 0 126 2.23858 126 5V7C126 9.76142 123.761 12 121 12H112C109.239 12 107 14.2386 107 17V65C107 67.7614 104.761 70 102 70H100C97.2386 70 95 67.7614 95 65V17C95 14.2386 92.7614 12 90 12H81C78.2386 12 76 9.76142 76 7V5Z" fill="#4E0824"/>
</g>
<defs>
<clipPath id="clip0_459_996">
<rect width="126" height="130" fill="white"/>
</clipPath>
</defs>
</svg>
