<svg width="24" height="24" viewBox="0 0 24 24" fill="none" xmlns="http://www.w3.org/2000/svg">
<path d="M18.452 6.86427C18.8945 6.35338 18.8426 5.57356 18.2827 5.19484C16.8199 4.20519 15.1206 3.60486 13.3465 3.46171C11.164 3.28562 8.98234 3.81054 7.11886 4.96011C5.25539 6.10967 3.80737 7.82389 2.98551 9.85332C2.16365 11.8827 2.01083 14.1215 2.5493 16.2438C3.08777 18.366 4.28942 20.2611 5.9794 21.6532C7.66938 23.0454 9.7595 23.8619 11.9456 23.984C14.1317 24.1061 16.2998 23.5274 18.1343 22.3321C19.6255 21.3605 20.8331 20.0226 21.6472 18.4552C21.9587 17.8554 21.6326 17.1452 21.0001 16.907C20.3676 16.6689 19.6697 16.9951 19.3361 17.583C18.7208 18.6672 17.8525 19.5944 16.7981 20.2814C15.4002 21.1923 13.748 21.6332 12.0821 21.5402C10.4162 21.4472 8.82343 20.8249 7.5356 19.7641C6.24776 18.7032 5.33205 17.2591 4.92172 15.6418C4.51138 14.0246 4.62783 12.3186 5.25413 10.772C5.88042 9.22553 6.98387 7.91923 8.40392 7.04321C9.82396 6.16719 11.4865 5.76718 13.1496 5.90137C14.404 6.00258 15.6093 6.4037 16.6671 7.06342C17.2406 7.42109 18.0095 7.37517 18.452 6.86427Z" fill="#1F1F1F"/>
<path d="M11.8942 8.35653C11.9875 8.17331 12.157 8.04063 12.3573 7.99397L17.3408 6.83289C17.7619 6.73477 17.9932 6.28095 17.825 5.88255L15.8351 1.16833C15.7551 0.978881 15.7629 0.763791 15.8562 0.580564L15.958 0.380764C16.2251 -0.143337 16.9811 -0.121727 17.2178 0.41677L20.1338 7.05159C20.3111 7.4551 20.0743 7.91987 19.6436 8.01358L12.562 9.55432C11.9872 9.67937 11.5253 9.08043 11.7924 8.55633L11.8942 8.35653Z" fill="#1F1F1F"/>
</svg>
