<svg width="24" height="24" viewBox="0 0 24 24" fill="none" xmlns="http://www.w3.org/2000/svg">
<path d="M22 12.9009C21.8248 14.7963 21.1135 16.6025 19.9493 18.1084C18.785 19.6142 17.216 20.7573 15.4257 21.404C13.6355 22.0506 11.6981 22.174 9.84032 21.7598C7.98251 21.3455 6.28109 20.4108 4.93516 19.0648C3.58923 17.7189 2.65445 16.0175 2.2402 14.1597C1.82595 12.3019 1.94937 10.3645 2.59601 8.57428C3.24266 6.78405 4.38578 5.215 5.89162 4.05074C7.39746 2.88648 9.20374 2.17516 11.0991 2C9.98942 3.50126 9.45544 5.35094 9.59427 7.21263C9.7331 9.07432 10.5355 10.8243 11.8556 12.1444C13.1757 13.4645 14.9257 14.2669 16.7874 14.4057C18.6491 14.5446 20.4987 14.0106 22 12.9009Z" stroke="#4E0824" stroke-width="2.22695" stroke-linecap="round" stroke-linejoin="round"/>
</svg>
