<svg width="24" height="24" viewBox="0 0 24 24" fill="none" xmlns="http://www.w3.org/2000/svg">
<path d="M7 21C6.45 21 5.97917 20.8042 5.5875 20.4125C5.19583 20.0208 5 19.55 5 19V6.5C5 6.22386 4.77614 6 4.5 6C4.22386 6 4 5.77614 4 5.5V5C4 4.44772 4.44772 4 5 4H8.5C8.77614 4 9 3.77614 9 3.5C9 3.22386 9.22386 3 9.5 3H14.5C14.7761 3 15 3.22386 15 3.5C15 3.77614 15.2239 4 15.5 4H19C19.5523 4 20 4.44772 20 5V5.5C20 5.77614 19.7761 6 19.5 6C19.2239 6 19 6.22386 19 6.5V19C19 19.55 18.8042 20.0208 18.4125 20.4125C18.0208 20.8042 17.55 21 17 21H7ZM17 7C17 6.44772 16.5523 6 16 6H8C7.44772 6 7 6.44772 7 7V18C7 18.5523 7.44772 19 8 19H16C16.5523 19 17 18.5523 17 18V7ZM9 16C9 16.5523 9.44772 17 10 17C10.5523 17 11 16.5523 11 16V9C11 8.44772 10.5523 8 10 8C9.44772 8 9 8.44772 9 9V16ZM13 16C13 16.5523 13.4477 17 14 17C14.5523 17 15 16.5523 15 16V9C15 8.44772 14.5523 8 14 8C13.4477 8 13 8.44772 13 9V16Z" fill="#4E0824"/>
</svg>
