<svg width="24" height="24" viewBox="0 0 24 24" fill="none" xmlns="http://www.w3.org/2000/svg">
<path d="M4 20C3.45 20 2.975 19.8083 2.575 19.425C2.19167 19.025 2 18.55 2 18V6C2 5.45 2.19167 4.98333 2.575 4.6C2.975 4.2 3.45 4 4 4H20C20.55 4 21.0167 4.2 21.4 4.6C21.8 4.98333 22 5.45 22 6V18C22 18.55 21.8 19.025 21.4 19.425C21.0167 19.8083 20.55 20 20 20H4ZM11.47 12.6688C11.7943 12.8714 12.2057 12.8714 12.53 12.6688L19.6014 8.2491C19.8494 8.09414 20 7.82238 20 7.53C20 6.86395 19.2674 6.45789 18.7026 6.8109L12.53 10.6688C12.2057 10.8714 11.7943 10.8714 11.47 10.6688L5.29744 6.8109C4.73263 6.45789 4 6.86395 4 7.53C4 7.82238 4.15062 8.09414 4.39856 8.2491L11.47 12.6688Z" fill="#4E0824"/>
</svg>
