<svg width="2492" height="1003" viewBox="0 0 2492 1003" fill="none" xmlns="http://www.w3.org/2000/svg">
<path d="M682.731 409.376C617.875 383.791 645.115 286.527 713.825 298.348L1253.6 391.209C1380.81 413.094 1371.35 598.781 1242.57 607.617L697.475 645.022C651.454 648.18 645.286 713.342 689.897 725.079V725.079C737.911 737.712 725.881 808.945 676.381 805.11L341.288 779.146C264.412 773.19 250.716 666.242 323.608 641.104L680.357 518.077C731.245 500.528 732.804 429.13 682.731 409.376V409.376Z" fill="#4E0824"/>
<path d="M890.731 483.376C825.875 457.791 853.115 360.527 921.825 372.348L1461.6 465.209C1588.81 487.094 1579.35 672.781 1450.57 681.617L905.475 719.022C859.454 722.18 853.286 787.342 897.897 799.079V799.079C945.911 811.712 933.881 882.945 884.381 879.11L549.288 853.146C472.412 847.19 458.716 740.242 531.608 715.104L888.357 592.077C939.245 574.528 940.804 503.13 890.731 483.376V483.376Z" fill="#A7243E"/>
<path d="M1024.73 572.376C959.875 546.791 987.115 449.527 1055.82 461.348L1595.6 554.209C1722.81 576.094 1713.35 761.781 1584.57 770.617L1039.47 808.022C993.454 811.18 987.286 876.342 1031.9 888.079V888.079C1079.91 900.712 1067.88 971.945 1018.38 968.11L683.288 942.146C606.412 936.19 592.716 829.242 665.608 804.104L1022.36 681.077C1073.24 663.528 1074.8 592.13 1024.73 572.376V572.376Z" fill="#E9876A"/>
<circle cx="2093.5" cy="398.5" r="398.5" fill="#A7243E"/>
<circle cx="2002.5" cy="325.5" r="282.5" fill="#4E0824"/>
</svg>
