<svg width="986" height="741" viewBox="0 0 986 741" fill="none" xmlns="http://www.w3.org/2000/svg">
<rect x="127.466" y="537.738" width="131.523" height="5" rx="2.5" transform="rotate(-55 127.466 537.738)" fill="#A7243E"/>
<rect x="133" y="539.697" width="133" height="5" rx="2.5" transform="rotate(180 133 539.697)" fill="#A7243E"/>
<rect x="222.466" y="725.133" width="131.523" height="5" rx="2.5" transform="rotate(-55 222.466 725.133)" fill="#4E0824"/>
<rect x="228" y="727" width="222" height="5" rx="2.5" transform="rotate(180 228 727)" fill="#4E0824"/>
<rect width="248" height="5" rx="2.5" transform="matrix(1 0 0 -1 726 739)" fill="#A7243E"/>
<rect width="131.986" height="5" rx="2.5" transform="matrix(-0.788011 -0.615662 -0.615662 0.788011 731.492 736.107)" fill="#A7243E"/>
<rect width="131.523" height="5" rx="2.5" transform="matrix(-0.573577 -0.819152 -0.819152 0.573577 808.534 645.738)" fill="#E9876A"/>
<rect width="133" height="5" rx="2.5" transform="matrix(1 0 0 -1 803 647.697)" fill="#E9876A"/>
<rect x="614.534" y="2.86719" width="131.523" height="5" rx="2.5" transform="rotate(125 614.534 2.86719)" fill="#E9876A"/>
<rect x="609" y="1" width="377" height="5" rx="2.5" fill="#E9876A"/>
<rect x="796.534" y="111.959" width="131.523" height="5" rx="2.5" transform="rotate(125 796.534 111.959)" fill="#4E0824"/>
<rect x="791" y="110" width="133" height="5" rx="2.5" fill="#4E0824"/>
<path d="M629.237 137.869C567.953 104.595 496.889 94.0265 428.575 108.026C360.26 122.026 299.082 159.696 255.826 214.394L303.268 251.911C337.685 208.391 386.362 178.419 440.718 167.279C495.073 156.14 551.616 164.549 600.377 191.024L629.237 137.869Z" fill="#E9876A"/>
<path d="M258.18 211.456C215.924 263.515 192.594 328.379 192.011 395.426C191.428 462.474 213.626 527.734 254.971 580.52L302.588 543.224C269.691 501.224 252.029 449.3 252.493 395.952C252.957 342.605 271.519 290.996 305.141 249.574L258.18 211.456Z" fill="#A7243E"/>
<path d="M251.961 576.61C287.016 622.936 334.928 657.923 389.727 677.21C444.526 696.498 503.79 699.234 560.133 685.076L545.393 626.416C500.563 637.68 453.41 635.503 409.808 620.157C366.207 604.811 328.085 576.973 300.193 540.113L251.961 576.61Z" fill="#4E0824"/>
<path d="M547.819 687.893C594.793 678.2 638.707 657.237 675.783 626.809L637.411 580.055C607.912 604.265 572.971 620.944 535.596 628.656L547.819 687.893Z" fill="#A7243E"/>
<path d="M667.135 633.641C704.058 605.572 733.868 569.219 754.162 527.514C774.456 485.808 784.665 439.917 783.966 393.542L723.489 394.453C724.045 431.352 715.922 467.866 699.775 501.049C683.628 534.233 659.909 563.157 630.53 585.491L667.135 633.641Z" fill="#E9876A"/>
<path d="M784 398C784 344.852 769.69 292.684 742.573 246.974C715.455 201.264 676.531 163.699 629.886 138.223L600.894 191.305C638.007 211.576 668.977 241.465 690.554 277.835C712.13 314.204 723.516 355.712 723.516 398H784Z" fill="#4E0824"/>
</svg>
