<svg width="2818" height="2612" viewBox="0 0 2818 2612" fill="none" xmlns="http://www.w3.org/2000/svg">
<rect x="2353.86" y="1036.92" width="464" height="369" rx="62" fill="#A7243E"/>
<circle cx="2430.86" cy="1247.92" r="12" fill="#E9876A"/>
<circle cx="2474.86" cy="1302.92" r="12" fill="#E9876A"/>
<circle cx="2530.86" cy="1240.92" r="12" fill="#E9876A"/>
<circle cx="2638.86" cy="1131.92" r="12" fill="#E9876A"/>
<circle cx="2597.86" cy="1259.92" r="12" fill="#E9876A"/>
<line x1="2433.41" y1="1248.66" x2="2476.41" y2="1301.66" stroke="#E9876A" stroke-width="4"/>
<line x1="2532.34" y1="1242.26" x2="2476.34" y2="1304.26" stroke="#E9876A" stroke-width="4"/>
<line x1="2597.31" y1="1261.85" x2="2530.31" y2="1242.85" stroke="#E9876A" stroke-width="4"/>
<line x1="2640.76" y1="1132.53" x2="2599.76" y2="1260.53" stroke="#E9876A" stroke-width="4"/>
<line x1="2637.22" y1="1130.77" x2="2665.22" y2="1090.77" stroke="#E9876A" stroke-width="4"/>
<path d="M1408.9 1422.26C1362.43 1491.54 1262.43 1496.73 1209.04 1432.63L713.913 838.168C632.684 740.643 474.636 812.242 494.387 937.618L595.72 1580.85C613.213 1691.89 756.962 1725.22 821.524 1633.19L1233.8 1045.58C1277.25 983.643 1365.33 974.205 1420.92 1025.53L1648 1235.18C1745.32 1325.03 1890.24 1200.57 1816.12 1090.8V1090.8C1771.81 1025.17 1675.13 1025.32 1631.03 1091.08L1408.9 1422.26Z" fill="#E9876A"/>
<path d="M1453.06 1357.1C1418.36 1408.85 1343.68 1412.72 1303.8 1364.85L934.028 920.888C873.365 848.054 755.33 901.527 770.081 995.161L845.759 1475.55C858.824 1558.48 966.179 1583.36 1014.4 1514.64L1322.29 1075.79C1354.74 1029.53 1420.53 1022.49 1462.04 1060.81L1631.63 1217.39C1704.31 1284.49 1812.54 1191.54 1757.19 1109.56V1109.56C1724.09 1060.55 1651.89 1060.66 1618.95 1109.77L1453.06 1357.1Z" fill="#A7243E"/>
<path d="M1869.55 991.905C1781.5 959.467 1775.61 837.17 1860.14 796.421L2276.74 595.585V595.585C2308.03 577.863 2290.81 529.972 2255.4 536.24L1819.22 613.459C1708.46 633.067 1697.63 787.759 1804.57 822.612L2266.54 973.169C2327.98 993.19 2322.63 1081.81 2259.24 1094.3L2172.12 1111.46C2111.92 1123.32 2118.44 1211.42 2179.73 1214.29V1214.29C2239.04 1217.07 2255.83 1134.21 2200.11 1113.68L1869.55 991.905Z" fill="#A7243E"/>
</svg>
