<svg width="1920" height="869" viewBox="0 0 1920 869" fill="none" xmlns="http://www.w3.org/2000/svg">
<path d="M-78.6671 662.329C-82.0054 628.946 -54.9361 600.378 -21.4219 601.914L92.3853 607.13C125.565 608.651 152.512 580.639 149.707 547.543L136.186 387.992C134.027 362.521 149.703 338.92 174.018 331.032L234.106 311.539C273.056 298.904 311.661 331.74 305.439 372.213L280.679 533.27C274.312 574.683 314.742 607.722 354.058 593.234L504.148 537.925C539.01 525.078 576.317 549.779 578.102 586.89L580.815 643.287C582.47 677.691 552.455 705.133 518.337 700.41L372.042 680.158C338.983 675.581 309.5 701.264 309.5 734.638V903.494C309.5 927.584 293.823 948.87 270.818 956.018L224.148 970.517C189.399 981.313 153.933 955.995 152.855 919.623L147.553 740.751C146.503 705.351 112.759 680.156 78.5195 689.207L-9.63445 712.513C-42.3554 721.163 -75.0511 698.489 -78.4188 664.812L-78.6671 662.329Z" fill="#4E0824"/>
<path d="M-120.667 716.329C-124.005 682.946 -96.9361 654.378 -63.4219 655.914L50.3853 661.13C83.5651 662.651 110.512 634.639 107.707 601.543L94.1858 441.992C92.0272 416.521 107.703 392.92 132.018 385.032L192.106 365.539C231.056 352.904 269.661 385.74 263.439 426.213L238.679 587.27C232.312 628.683 272.742 661.722 312.058 647.234L462.148 591.925C497.01 579.078 534.317 603.779 536.102 640.89L538.815 697.287C540.47 731.691 510.455 759.133 476.337 754.41L330.042 734.158C296.983 729.581 267.5 755.264 267.5 788.638V957.494C267.5 981.584 251.823 1002.87 228.818 1010.02L182.148 1024.52C147.399 1035.31 111.933 1009.99 110.855 973.623L105.553 794.751C104.503 759.351 70.7587 734.156 36.5195 743.207L-51.6345 766.513C-84.3554 775.163 -117.051 752.489 -120.419 718.812L-120.667 716.329Z" fill="#A7243E"/>
<path d="M-162.667 770.329C-166.005 736.946 -138.936 708.378 -105.422 709.914L8.38533 715.13C41.5651 716.651 68.5118 688.639 65.7071 655.543L52.1858 495.992C50.0272 470.521 65.7027 446.92 90.0182 439.032L150.106 419.539C189.056 406.904 227.661 439.74 221.439 480.213L196.679 641.27C190.312 682.683 230.742 715.722 270.058 701.234L420.148 645.925C455.01 633.078 492.317 657.779 494.102 694.89L496.815 751.287C498.47 785.691 468.455 813.133 434.337 808.41L288.042 788.158C254.983 783.581 225.5 809.264 225.5 842.638V1011.49C225.5 1035.58 209.823 1056.87 186.818 1064.02L140.148 1078.52C105.399 1089.31 69.9328 1063.99 68.8547 1027.62L63.5527 848.751C62.5034 813.351 28.7587 788.156 -5.48047 797.207L-93.6345 820.513C-126.355 829.163 -159.051 806.489 -162.419 772.812L-162.667 770.329Z" fill="#E9876A"/>
<path d="M1328.67 519.84C1379.21 477.974 1360.62 396.417 1296.93 380.593L1180.17 351.586C1106.42 333.261 1051.07 418.446 1097.78 478.395L1573.16 1088.52C1604.15 1128.29 1663.74 1129.83 1696.74 1091.73L1991.04 751.961C2025.44 712.245 2012.87 650.713 1965.64 627.68L1809.33 551.441C1737 516.163 1776.64 406.677 1854.79 425.893C1915.82 440.898 1924.63 524.021 1868.1 551.485L1068.97 939.773C983.883 981.117 910.123 866.559 982.974 806.21L1328.67 519.84Z" fill="#A7243E"/>
<path d="M1261.67 557.84C1312.21 515.974 1293.62 434.417 1229.93 418.593L1113.17 389.586C1039.42 371.261 984.067 456.446 1030.78 516.395L1506.16 1126.52C1537.15 1166.29 1596.74 1167.83 1629.74 1129.73L1924.04 789.961C1958.44 750.245 1945.87 688.713 1898.64 665.68L1742.33 589.441C1670 554.163 1709.64 444.677 1787.79 463.893C1848.82 478.898 1857.63 562.021 1801.1 589.485L1001.97 977.773C916.883 1019.12 843.123 904.559 915.974 844.21L1261.67 557.84Z" fill="#4E0824"/>
</svg>
