<svg width="2304" height="1788" viewBox="0 0 2304 1788" fill="none" xmlns="http://www.w3.org/2000/svg">
<path d="M90.3329 662.329C86.9946 628.946 114.064 600.378 147.578 601.914L261.385 607.13C294.565 608.651 321.512 580.639 318.707 547.543L305.186 387.992C303.027 362.521 318.703 338.92 343.018 331.032L403.106 311.539C442.056 298.904 480.661 331.74 474.439 372.213L449.679 533.27C443.312 574.683 483.742 607.722 523.058 593.234L673.148 537.925C708.01 525.078 745.317 549.779 747.102 586.89L749.815 643.287C751.47 677.691 721.455 705.133 687.337 700.41L541.042 680.158C507.983 675.581 478.5 701.264 478.5 734.638V903.494C478.5 927.584 462.823 948.87 439.818 956.018L393.148 970.517C358.399 981.313 322.933 955.995 321.855 919.623L316.553 740.751C315.503 705.351 281.759 680.156 247.52 689.207L159.366 712.513C126.645 721.163 93.9489 698.489 90.5812 664.812L90.3329 662.329Z" fill="#4E0824"/>
<path d="M48.3329 716.329C44.9946 682.946 72.0639 654.378 105.578 655.914L219.385 661.13C252.565 662.651 279.512 634.639 276.707 601.543L263.186 441.992C261.027 416.521 276.703 392.92 301.018 385.032L361.106 365.539C400.056 352.904 438.661 385.74 432.439 426.213L407.679 587.27C401.312 628.683 441.742 661.722 481.058 647.234L631.148 591.925C666.01 579.078 703.317 603.779 705.102 640.89L707.815 697.287C709.47 731.691 679.455 759.133 645.337 754.41L499.042 734.158C465.983 729.581 436.5 755.264 436.5 788.638V957.494C436.5 981.584 420.823 1002.87 397.818 1010.02L351.148 1024.52C316.399 1035.31 280.933 1009.99 279.855 973.623L274.553 794.751C273.503 759.351 239.759 734.156 205.52 743.207L117.366 766.513C84.6446 775.163 51.9489 752.489 48.5812 718.812L48.3329 716.329Z" fill="#A7243E"/>
<path d="M6.3329 770.329C2.99461 736.946 30.0639 708.378 63.5781 709.914L177.385 715.13C210.565 716.651 237.512 688.639 234.707 655.543L221.186 495.992C219.027 470.521 234.703 446.92 259.018 439.032L319.106 419.539C358.056 406.904 396.661 439.74 390.439 480.213L365.679 641.27C359.312 682.683 399.742 715.722 439.058 701.234L589.148 645.925C624.01 633.078 661.317 657.779 663.102 694.89L665.815 751.287C667.47 785.691 637.455 813.133 603.337 808.41L457.042 788.158C423.983 783.581 394.5 809.264 394.5 842.638V1011.49C394.5 1035.58 378.823 1056.87 355.818 1064.02L309.148 1078.52C274.399 1089.31 238.933 1063.99 237.855 1027.62L232.553 848.751C231.503 813.351 197.759 788.156 163.52 797.207L75.3655 820.513C42.6446 829.163 9.94892 806.489 6.5812 772.812L6.3329 770.329Z" fill="#E9876A"/>
<path d="M1497.67 519.84C1548.21 477.974 1529.62 396.417 1465.93 380.593L1349.17 351.586C1275.42 333.261 1220.07 418.446 1266.78 478.395L1742.16 1088.52C1773.15 1128.29 1832.74 1129.83 1865.74 1091.73L2160.04 751.961C2194.44 712.245 2181.87 650.713 2134.64 627.68L1978.33 551.441C1906 516.163 1945.64 406.677 2023.79 425.893C2084.82 440.898 2093.63 524.021 2037.1 551.485L1237.97 939.773C1152.88 981.117 1079.12 866.559 1151.97 806.21L1497.67 519.84Z" fill="#A7243E"/>
<path d="M1430.67 557.84C1481.21 515.974 1462.62 434.417 1398.93 418.593L1282.17 389.586C1208.42 371.261 1153.07 456.446 1199.78 516.395L1675.16 1126.52C1706.15 1166.29 1765.74 1167.83 1798.74 1129.73L2093.04 789.961C2127.44 750.245 2114.87 688.713 2067.64 665.68L1911.33 589.441C1839 554.163 1878.64 444.677 1956.79 463.893C2017.82 478.898 2026.63 562.021 1970.1 589.485L1170.97 977.773C1085.88 1019.12 1012.12 904.559 1084.97 844.21L1430.67 557.84Z" fill="#4E0824"/>
</svg>
