<svg width="2138" height="1215" viewBox="0 0 2138 1215" fill="none" xmlns="http://www.w3.org/2000/svg">
<path fill-rule="evenodd" clip-rule="evenodd" d="M1627.5 1021C1909.44 1021 2138 792.441 2138 510.5C2138 228.559 1909.44 0 1627.5 0C1486.57 0 1358.98 57.1036 1266.61 149.434C1321.81 97.3728 1396.23 65.4623 1478.1 65.4623C1648.37 65.4623 1786.4 203.496 1786.4 373.768C1786.4 544.041 1648.37 682.074 1478.1 682.074C1307.83 682.074 1169.79 544.041 1169.79 373.768C1169.79 301.704 1194.52 235.415 1235.95 182.92C1161.7 271.573 1117 385.817 1117 510.5C1117 792.441 1345.56 1021 1627.5 1021Z" fill="#E9876A"/>
<path fill-rule="evenodd" clip-rule="evenodd" d="M1651.39 492.281C1676.61 455.763 1691.38 411.476 1691.38 363.738C1691.38 238.658 1589.98 137.26 1464.9 137.26C1339.82 137.26 1238.42 238.658 1238.42 363.738C1238.42 488.819 1339.82 590.216 1464.9 590.216C1527.8 590.216 1584.72 564.572 1625.76 523.168C1604.17 541.915 1575.98 553.262 1545.14 553.262C1477.21 553.262 1422.14 498.19 1422.14 430.256C1422.14 362.322 1477.21 307.25 1545.14 307.25C1613.08 307.25 1668.15 362.322 1668.15 430.256C1668.15 452.877 1662.04 474.071 1651.39 492.281Z" fill="#4E0824"/>
<path fill-rule="evenodd" clip-rule="evenodd" d="M478.5 1215C742.768 1215 957 1000.77 957 736.5C957 472.232 742.768 258 478.5 258C214.232 258 0 472.232 0 736.5C0 1000.77 214.232 1215 478.5 1215ZM392.5 748C417.077 748 437 728.077 437 703.5C437 678.923 417.077 659 392.5 659C367.923 659 348 678.923 348 703.5C348 728.077 367.923 748 392.5 748ZM370 618.5C370 650.809 343.809 677 311.5 677C279.191 677 253 650.809 253 618.5C253 586.191 279.191 560 311.5 560C343.809 560 370 586.191 370 618.5ZM353 548C390.003 548 420 518.003 420 481C420 443.997 390.003 414 353 414C315.997 414 286 443.997 286 481C286 518.003 315.997 548 353 548ZM602 480.5C602 527.72 563.72 566 516.5 566C469.28 566 431 527.72 431 480.5C431 433.28 469.28 395 516.5 395C563.72 395 602 433.28 602 480.5ZM662.5 737C721.318 737 769 689.318 769 630.5C769 571.682 721.318 524 662.5 524C603.682 524 556 571.682 556 630.5C556 689.318 603.682 737 662.5 737ZM802 890.5C802 963.678 742.678 1023 669.5 1023C596.322 1023 537 963.678 537 890.5C537 817.322 596.322 758 669.5 758C742.678 758 802 817.322 802 890.5ZM339 1122C429.022 1122 502 1049.02 502 959C502 868.978 429.022 796 339 796C248.978 796 176 868.978 176 959C176 1049.02 248.978 1122 339 1122ZM248 726.5C248 785.871 199.871 834 140.5 834C81.1294 834 33 785.871 33 726.5C33 667.129 81.1294 619 140.5 619C199.871 619 248 667.129 248 726.5ZM175.5 602C208.913 602 236 574.913 236 541.5C236 508.087 208.913 481 175.5 481C142.087 481 115 508.087 115 541.5C115 574.913 142.087 602 175.5 602Z" fill="#A7243E"/>
</svg>
