<svg width="2307" height="1849" viewBox="0 0 2307 1849" fill="none" xmlns="http://www.w3.org/2000/svg">
<path d="M1850.23 1271.82C1939.1 1308.78 2038.98 1252.09 2052.79 1156.84L2130.48 621.373C2152.85 467.2 1951.96 388.181 1863.3 516.278L1345.18 1264.85C1281.29 1357.17 1141.79 1347.07 1091.86 1246.51L1085.66 1234.03C1025.01 1111.88 1148.44 979.927 1274.37 1032.3L1850.23 1271.82Z" fill="#E9876A"/>
<path d="M1936.23 1370.82C2025.1 1407.78 2124.98 1351.09 2138.79 1255.84L2216.48 720.373C2238.85 566.2 2037.96 487.181 1949.3 615.278L1431.18 1363.85C1367.29 1456.17 1227.79 1446.07 1177.86 1345.51L1171.66 1333.03C1111.01 1210.88 1234.44 1078.93 1360.37 1131.3L1936.23 1370.82Z" fill="#A7243E"/>
<path fill-rule="evenodd" clip-rule="evenodd" d="M231 1010C139.873 1010 66 1083.87 66 1175C66 1266.13 139.873 1340 231 1340H828.3C919.427 1340 993.3 1266.13 993.3 1175C993.3 1083.87 919.427 1010 828.3 1010H231ZM317.442 1057.3C252.691 1057.3 200.2 1109.79 200.2 1174.54C200.2 1239.29 252.691 1291.78 317.442 1291.78H741.858C806.609 1291.78 859.1 1239.29 859.1 1174.54C859.1 1109.79 806.609 1057.3 741.858 1057.3H317.442Z" fill="#A7243E"/>
<path d="M409.557 1077.14C421.607 1064.45 441.955 1064.84 453.499 1078L475.613 1103.2C498.581 1129.37 538.871 1130.74 563.556 1106.18L590.898 1078.97C604.353 1065.59 626.578 1067.36 637.742 1082.71V1082.71C646.344 1094.54 645.489 1110.77 635.692 1121.63L598.842 1162.48C583.926 1179.01 588.491 1205.16 608.128 1215.66L613.421 1218.49C628.458 1226.53 633.272 1245.79 623.785 1259.96V1259.96C613.274 1275.66 590.759 1277.17 578.235 1263.03L557.716 1239.86C536.695 1216.11 499.567 1216.34 478.841 1240.34L456.954 1265.68C448.878 1275.04 434.559 1275.56 425.822 1266.82V1266.82C417.407 1258.41 417.535 1244.72 426.107 1236.47L447.027 1216.32C470.052 1194.14 466.499 1156.32 439.747 1138.82L414.845 1122.52C399.307 1112.36 396.772 1090.6 409.557 1077.14V1077.14Z" fill="#4E0824"/>
<circle cx="314.5" cy="609.5" r="314.5" fill="#E9876A"/>
<circle cx="276.5" cy="565.5" r="254.5" fill="#A7243E"/>
</svg>
